<mxfile host="app.diagrams.net" agent="Mozilla/5.0 (Windows NT 10.0; Win64; x64) AppleWebKit/537.36 (KHTML, like Gecko) Chrome/133.0.0.0 Safari/537.36" version="26.0.14">
  <diagram name="第 1 页" id="dgMoX-AULky6V-c0y0NT">
    <mxGraphModel dx="952" dy="623" grid="1" gridSize="10" guides="1" tooltips="1" connect="1" arrows="1" fold="1" page="1" pageScale="1" pageWidth="827" pageHeight="1169" math="0" shadow="0">
      <root>
        <mxCell id="0" />
        <mxCell id="1" parent="0" />
        <mxCell id="99AfDLn0tlyLMIZODvCi-14" value="2" style="whiteSpace=wrap;html=1;aspect=fixed;fillColor=#C7C7C7;fontColor=#333333;strokeColor=#FFFFFF;" vertex="1" parent="1">
          <mxGeometry x="60" y="60" width="30" height="30" as="geometry" />
        </mxCell>
        <mxCell id="99AfDLn0tlyLMIZODvCi-15" value="1" style="whiteSpace=wrap;html=1;aspect=fixed;fillColor=#C7C7C7;fontColor=#333333;strokeColor=#FFFFFF;" vertex="1" parent="1">
          <mxGeometry x="90" y="60" width="30" height="30" as="geometry" />
        </mxCell>
        <mxCell id="99AfDLn0tlyLMIZODvCi-16" value="3" style="whiteSpace=wrap;html=1;aspect=fixed;fillColor=#C7C7C7;fontColor=#333333;strokeColor=#FFFFFF;" vertex="1" parent="1">
          <mxGeometry x="120" y="60" width="30" height="30" as="geometry" />
        </mxCell>
        <mxCell id="99AfDLn0tlyLMIZODvCi-18" value="4" style="whiteSpace=wrap;html=1;aspect=fixed;fillColor=#C7C7C7;fontColor=#333333;strokeColor=#FFFFFF;" vertex="1" parent="1">
          <mxGeometry x="60" y="90" width="30" height="30" as="geometry" />
        </mxCell>
        <mxCell id="99AfDLn0tlyLMIZODvCi-19" value="2" style="whiteSpace=wrap;html=1;aspect=fixed;fillColor=#C7C7C7;fontColor=#333333;strokeColor=#FFFFFF;" vertex="1" parent="1">
          <mxGeometry x="90" y="90" width="30" height="30" as="geometry" />
        </mxCell>
        <mxCell id="99AfDLn0tlyLMIZODvCi-20" value="1" style="whiteSpace=wrap;html=1;aspect=fixed;fillColor=#C7C7C7;fontColor=#333333;strokeColor=#FFFFFF;" vertex="1" parent="1">
          <mxGeometry x="120" y="90" width="30" height="30" as="geometry" />
        </mxCell>
        <mxCell id="99AfDLn0tlyLMIZODvCi-22" value="1" style="whiteSpace=wrap;html=1;aspect=fixed;fillColor=#C7C7C7;fontColor=#333333;strokeColor=#FFFFFF;" vertex="1" parent="1">
          <mxGeometry x="60" y="120" width="30" height="30" as="geometry" />
        </mxCell>
        <mxCell id="99AfDLn0tlyLMIZODvCi-23" value="0" style="whiteSpace=wrap;html=1;aspect=fixed;fillColor=#C7C7C7;fontColor=#333333;strokeColor=#FFFFFF;" vertex="1" parent="1">
          <mxGeometry x="90" y="120" width="30" height="30" as="geometry" />
        </mxCell>
        <mxCell id="99AfDLn0tlyLMIZODvCi-24" value="3" style="whiteSpace=wrap;html=1;aspect=fixed;fillColor=#C7C7C7;fontColor=#333333;strokeColor=#FFFFFF;" vertex="1" parent="1">
          <mxGeometry x="120" y="120" width="30" height="30" as="geometry" />
        </mxCell>
        <mxCell id="99AfDLn0tlyLMIZODvCi-30" value="0" style="whiteSpace=wrap;html=1;aspect=fixed;fillColor=#dae8fc;strokeColor=#FFFFFF;" vertex="1" parent="1">
          <mxGeometry x="230" y="30" width="30" height="30" as="geometry" />
        </mxCell>
        <mxCell id="99AfDLn0tlyLMIZODvCi-31" value="0" style="whiteSpace=wrap;html=1;aspect=fixed;fillColor=#dae8fc;strokeColor=#FFFFFF;" vertex="1" parent="1">
          <mxGeometry x="260" y="30" width="30" height="30" as="geometry" />
        </mxCell>
        <mxCell id="99AfDLn0tlyLMIZODvCi-32" value="0" style="whiteSpace=wrap;html=1;aspect=fixed;fillColor=#dae8fc;strokeColor=#FFFFFF;" vertex="1" parent="1">
          <mxGeometry x="290" y="30" width="30" height="30" as="geometry" />
        </mxCell>
        <mxCell id="99AfDLn0tlyLMIZODvCi-33" value="0" style="whiteSpace=wrap;html=1;aspect=fixed;fillColor=#dae8fc;strokeColor=#FFFFFF;" vertex="1" parent="1">
          <mxGeometry x="230" y="60" width="30" height="30" as="geometry" />
        </mxCell>
        <mxCell id="99AfDLn0tlyLMIZODvCi-34" value="2" style="whiteSpace=wrap;html=1;aspect=fixed;fillColor=#dae8fc;strokeColor=#FFFFFF;" vertex="1" parent="1">
          <mxGeometry x="260" y="60" width="30" height="30" as="geometry" />
        </mxCell>
        <mxCell id="99AfDLn0tlyLMIZODvCi-35" value="1" style="whiteSpace=wrap;html=1;aspect=fixed;fillColor=#dae8fc;strokeColor=#FFFFFF;" vertex="1" parent="1">
          <mxGeometry x="290" y="60" width="30" height="30" as="geometry" />
        </mxCell>
        <mxCell id="99AfDLn0tlyLMIZODvCi-36" value="0" style="whiteSpace=wrap;html=1;aspect=fixed;fillColor=#dae8fc;strokeColor=#FFFFFF;" vertex="1" parent="1">
          <mxGeometry x="230" y="90" width="30" height="30" as="geometry" />
        </mxCell>
        <mxCell id="99AfDLn0tlyLMIZODvCi-37" value="4" style="whiteSpace=wrap;html=1;aspect=fixed;fillColor=#dae8fc;strokeColor=#FFFFFF;" vertex="1" parent="1">
          <mxGeometry x="260" y="90" width="30" height="30" as="geometry" />
        </mxCell>
        <mxCell id="99AfDLn0tlyLMIZODvCi-38" value="2" style="whiteSpace=wrap;html=1;aspect=fixed;fillColor=#dae8fc;strokeColor=#FFFFFF;" vertex="1" parent="1">
          <mxGeometry x="290" y="90" width="30" height="30" as="geometry" />
        </mxCell>
        <mxCell id="99AfDLn0tlyLMIZODvCi-39" value="0" style="whiteSpace=wrap;html=1;aspect=fixed;fillColor=#C7C7C7;fontColor=#333333;strokeColor=#FFFFFF;" vertex="1" parent="1">
          <mxGeometry x="320" y="30" width="30" height="30" as="geometry" />
        </mxCell>
        <mxCell id="99AfDLn0tlyLMIZODvCi-40" value="1" style="whiteSpace=wrap;html=1;aspect=fixed;fillColor=#C7C7C7;fontColor=#333333;strokeColor=#FFFFFF;" vertex="1" parent="1">
          <mxGeometry x="320" y="60" width="30" height="30" as="geometry" />
        </mxCell>
        <mxCell id="99AfDLn0tlyLMIZODvCi-41" value="3" style="whiteSpace=wrap;html=1;aspect=fixed;fillColor=#C7C7C7;fontColor=#333333;strokeColor=#FFFFFF;" vertex="1" parent="1">
          <mxGeometry x="320" y="60" width="30" height="30" as="geometry" />
        </mxCell>
        <mxCell id="99AfDLn0tlyLMIZODvCi-42" value="1" style="whiteSpace=wrap;html=1;aspect=fixed;fillColor=#C7C7C7;fontColor=#333333;strokeColor=#FFFFFF;" vertex="1" parent="1">
          <mxGeometry x="320" y="90" width="30" height="30" as="geometry" />
        </mxCell>
        <mxCell id="99AfDLn0tlyLMIZODvCi-43" value="0" style="whiteSpace=wrap;html=1;aspect=fixed;fillColor=#C7C7C7;fontColor=#333333;strokeColor=#FFFFFF;" vertex="1" parent="1">
          <mxGeometry x="230" y="120" width="30" height="30" as="geometry" />
        </mxCell>
        <mxCell id="99AfDLn0tlyLMIZODvCi-44" value="1" style="whiteSpace=wrap;html=1;aspect=fixed;fillColor=#C7C7C7;fontColor=#333333;strokeColor=#FFFFFF;" vertex="1" parent="1">
          <mxGeometry x="260" y="120" width="30" height="30" as="geometry" />
        </mxCell>
        <mxCell id="99AfDLn0tlyLMIZODvCi-45" value="0" style="whiteSpace=wrap;html=1;aspect=fixed;fillColor=#C7C7C7;fontColor=#333333;strokeColor=#FFFFFF;" vertex="1" parent="1">
          <mxGeometry x="290" y="120" width="30" height="30" as="geometry" />
        </mxCell>
        <mxCell id="99AfDLn0tlyLMIZODvCi-46" value="3" style="whiteSpace=wrap;html=1;aspect=fixed;fillColor=#C7C7C7;fontColor=#333333;strokeColor=#FFFFFF;" vertex="1" parent="1">
          <mxGeometry x="320" y="120" width="30" height="30" as="geometry" />
        </mxCell>
        <mxCell id="99AfDLn0tlyLMIZODvCi-47" value="0" style="whiteSpace=wrap;html=1;aspect=fixed;fillColor=#C7C7C7;fontColor=#333333;strokeColor=#FFFFFF;" vertex="1" parent="1">
          <mxGeometry x="350" y="30" width="30" height="30" as="geometry" />
        </mxCell>
        <mxCell id="99AfDLn0tlyLMIZODvCi-48" value="0" style="whiteSpace=wrap;html=1;aspect=fixed;fillColor=#C7C7C7;fontColor=#333333;strokeColor=#FFFFFF;" vertex="1" parent="1">
          <mxGeometry x="350" y="60" width="30" height="30" as="geometry" />
        </mxCell>
        <mxCell id="99AfDLn0tlyLMIZODvCi-49" value="0" style="whiteSpace=wrap;html=1;aspect=fixed;fillColor=#C7C7C7;fontColor=#333333;strokeColor=#FFFFFF;" vertex="1" parent="1">
          <mxGeometry x="350" y="90" width="30" height="30" as="geometry" />
        </mxCell>
        <mxCell id="99AfDLn0tlyLMIZODvCi-50" value="0" style="whiteSpace=wrap;html=1;aspect=fixed;fillColor=#C7C7C7;fontColor=#333333;strokeColor=#FFFFFF;" vertex="1" parent="1">
          <mxGeometry x="350" y="120" width="30" height="30" as="geometry" />
        </mxCell>
        <mxCell id="99AfDLn0tlyLMIZODvCi-51" value="0" style="whiteSpace=wrap;html=1;aspect=fixed;fillColor=#C7C7C7;fontColor=#333333;strokeColor=#FFFFFF;" vertex="1" parent="1">
          <mxGeometry x="230" y="150" width="30" height="30" as="geometry" />
        </mxCell>
        <mxCell id="99AfDLn0tlyLMIZODvCi-52" value="0" style="whiteSpace=wrap;html=1;aspect=fixed;fillColor=#C7C7C7;fontColor=#333333;strokeColor=#FFFFFF;" vertex="1" parent="1">
          <mxGeometry x="260" y="150" width="30" height="30" as="geometry" />
        </mxCell>
        <mxCell id="99AfDLn0tlyLMIZODvCi-53" value="0" style="whiteSpace=wrap;html=1;aspect=fixed;fillColor=#C7C7C7;fontColor=#333333;strokeColor=#FFFFFF;" vertex="1" parent="1">
          <mxGeometry x="290" y="150" width="30" height="30" as="geometry" />
        </mxCell>
        <mxCell id="99AfDLn0tlyLMIZODvCi-54" value="0" style="whiteSpace=wrap;html=1;aspect=fixed;fillColor=#C7C7C7;fontColor=#333333;strokeColor=#FFFFFF;" vertex="1" parent="1">
          <mxGeometry x="320" y="150" width="30" height="30" as="geometry" />
        </mxCell>
        <mxCell id="99AfDLn0tlyLMIZODvCi-55" value="0" style="whiteSpace=wrap;html=1;aspect=fixed;fillColor=#C7C7C7;fontColor=#333333;strokeColor=#FFFFFF;" vertex="1" parent="1">
          <mxGeometry x="350" y="150" width="30" height="30" as="geometry" />
        </mxCell>
        <mxCell id="99AfDLn0tlyLMIZODvCi-56" value="" style="shape=cross;whiteSpace=wrap;html=1;aspect=fixed;fillColor=#000000;rotation=45;size=0.12451410269558684;" vertex="1" parent="1">
          <mxGeometry x="411" y="93" width="30" height="30" as="geometry" />
        </mxCell>
        <mxCell id="99AfDLn0tlyLMIZODvCi-57" value="1" style="whiteSpace=wrap;html=1;aspect=fixed;fillColor=#C7C7C7;fontColor=#333333;strokeColor=#FFFFFF;" vertex="1" parent="1">
          <mxGeometry x="470" y="63" width="30" height="30" as="geometry" />
        </mxCell>
        <mxCell id="99AfDLn0tlyLMIZODvCi-58" value="1" style="whiteSpace=wrap;html=1;aspect=fixed;fillColor=#C7C7C7;fontColor=#333333;strokeColor=#FFFFFF;" vertex="1" parent="1">
          <mxGeometry x="500" y="63" width="30" height="30" as="geometry" />
        </mxCell>
        <mxCell id="99AfDLn0tlyLMIZODvCi-59" value="1" style="whiteSpace=wrap;html=1;aspect=fixed;fillColor=#C7C7C7;fontColor=#333333;strokeColor=#FFFFFF;" vertex="1" parent="1">
          <mxGeometry x="530" y="63" width="30" height="30" as="geometry" />
        </mxCell>
        <mxCell id="99AfDLn0tlyLMIZODvCi-60" value="1" style="whiteSpace=wrap;html=1;aspect=fixed;fillColor=#C7C7C7;fontColor=#333333;strokeColor=#FFFFFF;" vertex="1" parent="1">
          <mxGeometry x="470" y="93" width="30" height="30" as="geometry" />
        </mxCell>
        <mxCell id="99AfDLn0tlyLMIZODvCi-61" value="0" style="whiteSpace=wrap;html=1;aspect=fixed;fillColor=#C7C7C7;fontColor=#333333;strokeColor=#FFFFFF;" vertex="1" parent="1">
          <mxGeometry x="500" y="93" width="30" height="30" as="geometry" />
        </mxCell>
        <mxCell id="99AfDLn0tlyLMIZODvCi-62" value="1" style="whiteSpace=wrap;html=1;aspect=fixed;fillColor=#C7C7C7;fontColor=#333333;strokeColor=#FFFFFF;" vertex="1" parent="1">
          <mxGeometry x="530" y="93" width="30" height="30" as="geometry" />
        </mxCell>
        <mxCell id="99AfDLn0tlyLMIZODvCi-63" value="1" style="whiteSpace=wrap;html=1;aspect=fixed;fillColor=#C7C7C7;fontColor=#333333;strokeColor=#FFFFFF;" vertex="1" parent="1">
          <mxGeometry x="470" y="123" width="30" height="30" as="geometry" />
        </mxCell>
        <mxCell id="99AfDLn0tlyLMIZODvCi-64" value="1" style="whiteSpace=wrap;html=1;aspect=fixed;fillColor=#C7C7C7;fontColor=#333333;strokeColor=#FFFFFF;" vertex="1" parent="1">
          <mxGeometry x="500" y="123" width="30" height="30" as="geometry" />
        </mxCell>
        <mxCell id="99AfDLn0tlyLMIZODvCi-65" value="1" style="whiteSpace=wrap;html=1;aspect=fixed;fillColor=#C7C7C7;fontColor=#333333;strokeColor=#FFFFFF;" vertex="1" parent="1">
          <mxGeometry x="530" y="123" width="30" height="30" as="geometry" />
        </mxCell>
        <mxCell id="99AfDLn0tlyLMIZODvCi-66" value="7" style="whiteSpace=wrap;html=1;aspect=fixed;fillColor=#dae8fc;strokeColor=#FFFFFF;" vertex="1" parent="1">
          <mxGeometry x="640" y="63" width="30" height="30" as="geometry" />
        </mxCell>
        <mxCell id="99AfDLn0tlyLMIZODvCi-67" value="" style="whiteSpace=wrap;html=1;aspect=fixed;fillColor=#C7C7C7;fontColor=#333333;strokeColor=#FFFFFF;" vertex="1" parent="1">
          <mxGeometry x="670" y="63" width="30" height="30" as="geometry" />
        </mxCell>
        <mxCell id="99AfDLn0tlyLMIZODvCi-68" value="" style="whiteSpace=wrap;html=1;aspect=fixed;fillColor=#C7C7C7;fontColor=#333333;strokeColor=#FFFFFF;" vertex="1" parent="1">
          <mxGeometry x="700" y="63" width="30" height="30" as="geometry" />
        </mxCell>
        <mxCell id="99AfDLn0tlyLMIZODvCi-69" value="" style="whiteSpace=wrap;html=1;aspect=fixed;fillColor=#C7C7C7;fontColor=#333333;strokeColor=#FFFFFF;" vertex="1" parent="1">
          <mxGeometry x="640" y="93" width="30" height="30" as="geometry" />
        </mxCell>
        <mxCell id="99AfDLn0tlyLMIZODvCi-70" value="" style="whiteSpace=wrap;html=1;aspect=fixed;fillColor=#C7C7C7;fontColor=#333333;strokeColor=#FFFFFF;" vertex="1" parent="1">
          <mxGeometry x="670" y="93" width="30" height="30" as="geometry" />
        </mxCell>
        <mxCell id="99AfDLn0tlyLMIZODvCi-71" value="" style="whiteSpace=wrap;html=1;aspect=fixed;fillColor=#C7C7C7;fontColor=#333333;strokeColor=#FFFFFF;" vertex="1" parent="1">
          <mxGeometry x="700" y="93" width="30" height="30" as="geometry" />
        </mxCell>
        <mxCell id="99AfDLn0tlyLMIZODvCi-72" value="" style="whiteSpace=wrap;html=1;aspect=fixed;fillColor=#C7C7C7;fontColor=#333333;strokeColor=#FFFFFF;" vertex="1" parent="1">
          <mxGeometry x="640" y="123" width="30" height="30" as="geometry" />
        </mxCell>
        <mxCell id="99AfDLn0tlyLMIZODvCi-73" value="" style="whiteSpace=wrap;html=1;aspect=fixed;fillColor=#C7C7C7;fontColor=#333333;strokeColor=#FFFFFF;" vertex="1" parent="1">
          <mxGeometry x="670" y="123" width="30" height="30" as="geometry" />
        </mxCell>
        <mxCell id="99AfDLn0tlyLMIZODvCi-74" value="" style="whiteSpace=wrap;html=1;aspect=fixed;fillColor=#C7C7C7;fontColor=#333333;strokeColor=#FFFFFF;" vertex="1" parent="1">
          <mxGeometry x="700" y="123" width="30" height="30" as="geometry" />
        </mxCell>
        <mxCell id="99AfDLn0tlyLMIZODvCi-75" value="" style="rounded=0;whiteSpace=wrap;html=1;fillColor=none;strokeColor=#6C8EBF;dashed=1;" vertex="1" parent="1">
          <mxGeometry x="229" y="29" width="91" height="91" as="geometry" />
        </mxCell>
        <mxCell id="99AfDLn0tlyLMIZODvCi-76" value="" style="shape=cross;whiteSpace=wrap;html=1;aspect=fixed;fillColor=#000000;size=0.14093973322432304;" vertex="1" parent="1">
          <mxGeometry x="411" y="93" width="30" height="30" as="geometry" />
        </mxCell>
        <mxCell id="99AfDLn0tlyLMIZODvCi-77" value="" style="shape=singleArrow;whiteSpace=wrap;html=1;arrowWidth=0.2990846129669497;arrowSize=0.43339791133485905;" vertex="1" parent="1">
          <mxGeometry x="166" y="93.5" width="50" height="23" as="geometry" />
        </mxCell>
        <mxCell id="99AfDLn0tlyLMIZODvCi-79" value="" style="shape=singleArrow;whiteSpace=wrap;html=1;arrowWidth=0.2990846129669497;arrowSize=0.43339791133485905;" vertex="1" parent="1">
          <mxGeometry x="575" y="93" width="50" height="23" as="geometry" />
        </mxCell>
      </root>
    </mxGraphModel>
  </diagram>
</mxfile>
